<svg width="418" height="322" viewBox="0 0 418 322" fill="none" xmlns="http://www.w3.org/2000/svg">
<circle cx="222.968" cy="160.953" r="160.953" fill="#E23A01"/>
<path d="M1 159.901C26.5 -24.102 40.6667 -24.102 43.5 159.901C45.5558 242.914 59.7225 242.914 86 159.901C111.5 76.8881 125.667 76.8881 128.5 159.901C133.21 352.892 147.377 352.892 171 159.901C196.5 -33.0906 210.667 -33.0906 213.5 159.901C216.399 361.881 230.566 361.881 256 159.901C281.5 -42.0793 295.667 -42.0793 298.5 159.901C300.784 283.627 314.951 283.627 341 159.901C366.5 36.1748 380.667 36.1748 383.5 159.901C387.042 345.49 401.208 345.49 426 159.901" stroke="#FFD2B1" stroke-width="2"/>
</svg>
