<svg width="50" height="45" viewBox="0 0 50 45" fill="none" xmlns="http://www.w3.org/2000/svg">
<path d="M31.25 0.287109H2.08313C0.938125 0.287109 0 1.19478 0 2.30261V10.3658C0 11.4737 0.938125 12.3813 2.08313 12.3813H31.25C32.3956 12.3813 33.3331 11.4737 33.3331 10.3658V2.30261C33.3331 1.19478 32.3956 0.287109 31.25 0.287109ZM29.1669 8.34973H4.16688V4.31872H29.1669V8.34973Z" fill="#FFD2B1"/>
<path d="M43.75 0.287109C40.2994 0.287109 37.5 2.99561 37.5 6.33423C37.5 9.67284 40.2994 12.3813 43.75 12.3813C47.2006 12.3813 50 9.67284 50 6.33423C50 2.99561 47.2006 0.287109 43.75 0.287109ZM43.75 8.34973C42.6006 8.34973 41.6669 7.44629 41.6669 6.33423C41.6669 5.22398 42.6006 4.31872 43.75 4.31872C44.8994 4.31872 45.8331 5.22398 45.8331 6.33423C45.8331 7.44629 44.8994 8.34973 43.75 8.34973Z" fill="#FFD2B1"/>
<path d="M18.75 28.5049H47.9169C49.0619 28.5049 50 27.5975 50 26.4899V18.429C50 17.3209 49.0619 16.4141 47.9169 16.4141H18.75C17.6044 16.4141 16.6669 17.3209 16.6669 18.429V26.4899C16.6669 27.5975 17.6044 28.5049 18.75 28.5049ZM20.8331 20.4439H45.8331V24.4744H20.8331V20.4439Z" fill="#FFD2B1"/>
<path d="M6.25 28.5049C9.70062 28.5049 12.5 25.7971 12.5 22.4595C12.5 19.1218 9.70062 16.4141 6.25 16.4141C2.79938 16.4141 0 19.1218 0 22.4595C0 25.7971 2.79938 28.5049 6.25 28.5049ZM6.25 20.4439C7.39937 20.4439 8.33313 21.3495 8.33313 22.4595C8.33313 23.5712 7.39937 24.4744 6.25 24.4744C5.10063 24.4744 4.16687 23.5712 4.16687 22.4595C4.16687 21.3495 5.10063 20.4439 6.25 20.4439Z" fill="#FFD2B1"/>
<path d="M31.25 32.5391H2.08313C0.938125 32.5391 0 33.4462 0 34.5547V42.618C0 43.7265 0.938125 44.6343 2.08313 44.6343H31.25C32.3956 44.6343 33.3331 43.7265 33.3331 42.618V34.5547C33.3331 33.4462 32.3956 32.5391 31.25 32.5391ZM29.1669 40.6023H4.16688V36.5704H29.1669V40.6023Z" fill="#FFD2B1"/>
<path d="M43.75 32.5391C40.2994 32.5391 37.5 35.2478 37.5 38.5867C37.5 41.9256 40.2994 44.6343 43.75 44.6343C47.2006 44.6343 50 41.9256 50 38.5867C50 35.2478 47.2006 32.5391 43.75 32.5391ZM43.75 40.6023C42.6006 40.6023 41.6669 39.697 41.6669 38.5867C41.6669 37.4763 42.6006 36.5704 43.75 36.5704C44.8994 36.5704 45.8331 37.4763 45.8331 38.5867C45.8331 39.697 44.8994 40.6023 43.75 40.6023Z" fill="#FFD2B1"/>
</svg>
