<svg width="84" height="46" viewBox="0 0 84 46" fill="none" xmlns="http://www.w3.org/2000/svg">
<circle cx="42" cy="24" r="16" fill="#1D1485"/>
<path d="M6.42212 31.4962C-1.80824 17.8833 0.54719 17.3208 13.4884 29.8087C25.6814 41.0591 28.0368 40.4967 20.5547 28.1213C12.6443 15.8482 14.9997 15.2857 27.621 26.4338C40.0445 37.2751 42.3999 36.7126 34.6872 24.7463C26.8568 12.8082 29.2123 12.2457 41.7535 23.0589C56.5703 37.3412 58.9257 36.7788 48.8198 21.3714C40.0829 5.6371 42.4383 5.07461 55.8861 19.6839C67.3088 30.6462 69.6642 30.0837 62.9524 17.9964C55.1486 6.16993 57.5041 5.60744 70.0187 16.309C83.7442 28.8457 86.0996 28.2832 77.0849 14.6215" stroke="#E23A01"/>
</svg>
