<svg width="204" height="153" viewBox="0 0 204 153" fill="none" xmlns="http://www.w3.org/2000/svg">
<circle cx="106.5" cy="76.5" r="76.5" fill="#E23A01"/>
<path d="M1 76C13.12 -11.4555 19.8533 -11.4555 21.2 76C22.1771 115.455 28.9104 115.455 41.4 76C53.52 36.5445 60.2533 36.5445 61.6 76C63.8387 167.728 70.5721 167.728 81.8 76C93.92 -15.7278 100.653 -15.7278 102 76C103.378 172 110.111 172 122.2 76C134.32 -20 141.053 -20 142.4 76C143.486 134.806 150.219 134.806 162.6 76C174.72 17.1937 181.453 17.1937 182.8 76C184.483 164.209 191.217 164.209 203 76" stroke="#1D1485" stroke-width="2"/>
</svg>
