<svg width="146" height="44" viewBox="0 0 146 44" fill="none" xmlns="http://www.w3.org/2000/svg">
<path d="M12.6 42.29C12.99 43.58 14.76 42.95 14.43 41.81L9.66 25.91C9.48 25.34 9 25.04 8.55 25.04C8.07 25.04 7.59 25.34 7.41 25.91C5.88 31.22 4.35 36.56 2.79 41.81C2.37 43.13 4.35 43.52 4.74 42.23L5.85 38.48H11.43L12.6 42.29ZM8.61 29.09C9.42 31.79 10.11 33.95 10.86 36.47H6.45L8.61 29.09ZM31.2652 26C31.2652 25.37 30.7552 25.04 30.2452 25.04C29.7352 25.04 29.2552 25.37 29.2552 26V38.03L22.9252 25.52C22.5952 24.89 21.0952 24.95 21.0952 26V42.14C21.0952 42.77 21.6052 43.1 22.0852 43.1C22.5952 43.1 23.0752 42.77 23.0752 42.14V30.2C25.3252 34.64 27.0052 38.03 29.2552 42.44C29.4652 42.83 29.9452 43.1 30.3052 43.1C30.7852 43.1 31.2652 42.77 31.2652 42.14V26ZM38.6077 37.79C38.6077 41.06 40.7377 43.25 44.0677 43.25H44.8477C48.1177 43.25 50.3077 41.09 50.3077 37.79V30.35C50.3077 26.75 48.4177 24.83 44.8477 24.83H44.0677C40.4677 24.83 38.6077 26.75 38.6077 30.35V37.79ZM44.0677 41.24C41.9077 41.24 40.5277 39.98 40.5277 37.79V30.35C40.5277 28.04 41.7877 26.81 44.0677 26.81H44.8477C47.1577 26.81 48.2977 28.01 48.2977 30.35V37.79C48.2977 39.89 47.0077 41.24 44.8477 41.24H44.0677ZM71.0112 42.14C71.0112 42.77 71.4912 43.1 72.0012 43.1C72.5112 43.1 73.0212 42.77 73.0212 42.14V26C73.0212 25.52 72.9012 25.04 72.0312 25.04H70.8312C70.2012 25.04 69.9312 25.46 69.7812 25.88L65.4312 38.39C63.9612 34.07 62.6412 30.26 61.2012 25.97C61.0512 25.52 60.6912 25.04 60.0312 25.04H59.0712C58.4712 25.04 58.0512 25.46 58.0512 26.03V42.14C58.0512 42.77 58.5612 43.1 59.0712 43.1C59.5812 43.1 60.0612 42.77 60.0612 42.14V28.76L64.6812 42.26C64.9812 43.19 65.9712 43.01 66.2412 42.26L71.0112 28.76V42.14ZM88.7719 42.29C89.1619 43.58 90.9319 42.95 90.6019 41.81L85.8319 25.91C85.6519 25.34 85.1719 25.04 84.7219 25.04C84.2419 25.04 83.7619 25.34 83.5819 25.91C82.0519 31.22 80.5219 36.56 78.9619 41.81C78.5419 43.13 80.5219 43.52 80.9119 42.23L82.0219 38.48H87.6019L88.7719 42.29ZM84.7819 29.09C85.5919 31.79 86.2819 33.95 87.0319 36.47H82.6219L84.7819 29.09ZM97.267 42.14C97.267 42.62 97.657 43.1 98.257 43.1H105.187C105.847 43.1 106.207 42.62 106.207 42.11C106.207 41.6 105.847 41.09 105.187 41.09H99.217V26C99.217 25.37 98.707 25.04 98.227 25.04C97.747 25.04 97.267 25.37 97.267 26V42.14ZM119.499 26.45C120.129 25.16 118.329 24.29 117.669 25.67L114.819 31.58L111.849 25.64C111.219 24.38 109.389 25.16 110.019 26.48L113.829 34.16V42.14C113.829 42.77 114.309 43.1 114.819 43.1C115.299 43.1 115.779 42.8 115.779 42.14V34.16L119.499 26.45Z" fill="black"/>
<path d="M124.315 22.9353C125.739 25.8409 126.424 25.7972 126.371 22.8042C125.941 10.5416 126.626 10.4979 128.428 22.6731C130.442 34.8349 131.127 34.7912 130.484 22.542C130.11 14.9226 130.795 14.8789 132.54 22.4109C134.26 29.9446 132.626 10.8761 132.278 3.25505C131.961 -3.78399 134.966 15.1971 136.653 22.1487C138.335 29.1007 139.021 29.057 138.71 22.0176C138.14 10.1954 138.826 10.1517 140.766 21.8865C142.753 33.6183 143.438 33.5746 142.822 21.7554C142.324 11.9602 143.009 11.9165 144.879 21.6243" stroke="#E23A01"/>
</svg>
