<svg width="50" height="48" viewBox="0 0 50 48" fill="none" xmlns="http://www.w3.org/2000/svg">
<path d="M25 21.3325C21.5475 21.3325 18.75 24.099 18.75 27.5132C18.75 30.9274 21.5475 33.6938 25 33.6938C28.4525 33.6938 31.25 30.9274 31.25 27.5132C31.25 24.099 28.4525 21.3325 25 21.3325ZM25 29.5732C23.8481 29.5732 22.9169 28.6523 22.9169 27.5132C22.9169 26.3741 23.8481 25.4532 25 25.4532C26.1519 25.4532 27.0831 26.3741 27.0831 27.5132C27.0831 28.6523 26.1519 29.5732 25 29.5732Z" fill="#FFD2B1"/>
<path d="M45.4606 28.5634C45.4787 28.2136 45.5137 27.8674 45.5137 27.5133C45.5137 19.6383 40.9744 12.832 34.3525 9.4678C34.2306 4.45023 30.1025 0.416016 25 0.416016C19.8975 0.416016 15.7675 4.44961 15.645 9.4678C9.0225 12.832 4.48437 19.6383 4.48437 27.5133C4.48437 27.8674 4.52125 28.2136 4.53688 28.5652C1.82938 30.1914 0 33.1069 0 36.4705C0 41.5907 4.1975 45.7398 9.375 45.7417C11.0188 45.7417 12.5406 45.2874 13.8838 44.5525C17.09 46.6002 20.8988 47.8018 25 47.8018C29.1 47.8018 32.91 46.6008 36.1144 44.5525C37.4575 45.2874 38.9788 45.7417 40.6231 45.7417C45.8025 45.7417 50 41.5907 50 36.4705C50 33.1069 48.1706 30.1889 45.4606 28.5634ZM25 4.53861C27.8769 4.53861 30.2081 6.8422 30.2081 9.68907C30.2081 12.5341 27.8769 14.8395 25 14.8395C22.1231 14.8395 19.7919 12.5341 19.7919 9.68907C19.7919 6.84158 22.1231 4.53861 25 4.53861ZM9.375 41.621C6.49813 41.6191 4.16687 39.3155 4.16687 36.4705C4.16875 33.6236 6.49813 31.32 9.375 31.3176C12.2519 31.32 14.5831 33.623 14.5831 36.4705C14.5831 39.3155 12.2519 41.621 9.375 41.621ZM32.8719 41.684C30.5375 42.9548 27.8544 43.6816 25 43.6816C22.1437 43.6816 19.4625 42.9548 17.1263 41.6815C18.15 40.1963 18.75 38.4038 18.75 36.4705C18.7519 31.346 14.5525 27.1993 9.375 27.1974C9.13062 27.1974 8.90313 27.2494 8.6625 27.2673C8.75063 21.4932 11.8975 16.4688 16.5687 13.6788C18.0806 16.7933 21.2725 18.9603 25 18.9603C28.7294 18.9603 31.9194 16.7933 33.4306 13.6788C38.1025 16.4694 41.2475 21.4938 41.3344 27.2673C41.0944 27.2494 40.8669 27.1974 40.6225 27.1974C35.445 27.1993 31.25 31.3478 31.2481 36.4705C31.2481 38.4038 31.8481 40.1963 32.8719 41.684ZM40.6231 41.621C37.7456 41.621 35.4169 39.3155 35.4169 36.4705C35.4169 33.6236 37.7463 31.32 40.6231 31.32C43.5013 31.32 45.8331 33.6236 45.8331 36.4705C45.8331 39.3155 43.5019 41.621 40.6231 41.621Z" fill="#FFD2B1"/>
</svg>
