<svg width="50" height="50" viewBox="0 0 50 50" fill="none" xmlns="http://www.w3.org/2000/svg">
<path d="M25 16.667C20.3981 16.667 16.6669 20.3982 16.6669 25.0001C16.6669 29.6039 20.3981 33.3332 25 33.3332C29.6 33.3332 33.3331 29.6039 33.3331 25.0001C33.3331 20.3982 29.6 16.667 25 16.667ZM25 29.167C22.6987 29.167 20.8331 27.3032 20.8331 25.0001C20.8331 22.6989 22.6987 20.8332 25 20.8332C27.2994 20.8332 29.1669 22.6989 29.1669 25.0001C29.1669 27.3032 27.2994 29.167 25 29.167Z" fill="#FFD2B1"/>
<path d="M34.6313 32.9668C32.7594 35.2274 30.1025 36.8043 27.0831 37.3124V41.5218C31.6406 40.9524 35.6156 38.5449 38.2631 35.0624L34.6313 32.9668Z" fill="#FFD2B1"/>
<path d="M27.0831 12.6875C30.1025 13.1957 32.7594 14.7725 34.6313 17.0332L38.2631 14.9369C35.6163 11.4544 31.6406 9.04691 27.0831 8.47754V12.6875Z" fill="#FFD2B1"/>
<path d="M37.5001 24.9998C37.5001 26.5336 37.2113 27.9948 36.7051 29.3517L40.3645 31.4654C41.2032 29.4779 41.667 27.2929 41.667 24.9998C41.667 22.7067 41.2032 20.5242 40.3645 18.5342L36.7051 20.6479C37.2113 22.0048 37.5001 23.4679 37.5001 24.9998Z" fill="#FFD2B1"/>
<path d="M12.5 24.9998C12.5 23.4679 12.7888 22.0048 13.2938 20.6479L9.63563 18.5342C8.79688 20.5217 8.33313 22.7067 8.33313 24.9998C8.33313 27.2929 8.79688 29.4779 9.63563 31.4654L13.2938 29.3517C12.7888 27.9948 12.5 26.5336 12.5 24.9998Z" fill="#FFD2B1"/>
<path d="M22.9168 37.3124C19.8975 36.8043 17.2406 35.2274 15.3687 32.9668L11.7356 35.0643C14.3843 38.5474 18.36 40.9524 22.9175 41.5218V37.3124H22.9168Z" fill="#FFD2B1"/>
<path d="M15.3687 17.033C17.2406 14.7724 19.8956 13.1955 22.9169 12.6874V8.47803C18.3575 9.0474 14.3819 11.4549 11.735 14.9374L15.3687 17.033Z" fill="#FFD2B1"/>
<path d="M4.16688 22.9168C4.77313 16.815 8.02 11.5068 12.7363 8.10559L10.64 4.47559C4.6875 8.61809 0.630625 15.275 0 22.9168H4.16688Z" fill="#FFD2B1"/>
<path d="M16.4469 6.01813C19.0569 4.83813 21.9481 4.16688 25 4.16688C28.0519 4.16688 30.9406 4.84 33.5531 6.01813L35.6406 2.40313C32.4081 0.878751 28.8106 0 25 0C21.1869 0 17.5906 0.876875 14.36 2.40313L16.4469 6.01813Z" fill="#FFD2B1"/>
<path d="M37.2637 8.10746C41.9799 11.5068 45.2287 16.8175 45.833 22.9168H49.9999C49.3693 15.2768 45.3124 8.61809 39.3599 4.47559L37.2637 8.10746Z" fill="#FFD2B1"/>
<path d="M12.7363 41.8943C8.02 38.493 4.77313 33.1843 4.16688 27.083H0C0.630625 34.723 4.6875 41.3818 10.64 45.5243L12.7363 41.8943Z" fill="#FFD2B1"/>
<path d="M33.5531 43.9819C30.9406 45.1619 28.0519 45.8332 25 45.8332C21.9481 45.8332 19.0594 45.1619 16.4469 43.9819L14.3594 47.5969C17.5906 49.1232 21.1869 50.0001 25 50.0001C28.8106 50.0001 32.4081 49.1232 35.64 47.5969L33.5531 43.9819Z" fill="#FFD2B1"/>
<path d="M45.8331 27.083C45.2269 33.183 41.98 38.4905 37.2662 41.8924L39.3619 45.5218C45.3125 41.3799 49.3694 34.723 50 27.083H45.8331Z" fill="#FFD2B1"/>
</svg>
