<svg width="50" height="58" viewBox="0 0 50 58" fill="none" xmlns="http://www.w3.org/2000/svg">
<path d="M25 0L0 14.2857V42.8571L25 57.1429L49.9929 42.8614L50 42.85V14.2857L25 0ZM25 5.49929L42.7786 15.6571L37.97 18.4057L25 10.9979L12.0329 18.4079L7.22 15.6571L25 5.49929ZM35.5679 22.5329V31.8607L27.4064 27.2V17.8714L35.5679 22.5329ZM22.5936 17.8714V27.1979L14.4343 31.86V22.5329L22.5936 17.8714ZM22.5936 50.2693L4.81071 40.1086V19.78L9.62071 22.5286V37.3579L22.5936 44.7714V50.2693ZM16.8364 35.9836L24.9979 31.32L33.1614 35.9836L25 40.6457L16.8364 35.9836ZM45.1893 40.1086L27.4064 50.2693V44.7714L40.3786 37.3607V22.5286L45.1886 19.78V40.1086H45.1893Z" fill="#FFD2B1"/>
</svg>
