<svg width="50" height="54" viewBox="0 0 50 54" fill="none" xmlns="http://www.w3.org/2000/svg">
<path d="M6.81812 0.611816C3.05383 0.611816 0 3.56647 0 7.2085C0 10.8525 3.05383 13.8052 6.81812 13.8052C10.5824 13.8052 13.6362 10.8525 13.6362 7.2085C13.6362 3.56647 10.5824 0.611816 6.81812 0.611816ZM6.81812 9.40717C5.56222 9.40717 4.54564 8.4236 4.54564 7.2085C4.54564 5.99537 5.56222 5.00982 6.81812 5.00982C8.07469 5.00982 9.09127 5.99537 9.09127 7.2085C9.09127 8.4236 8.07469 9.40717 6.81812 9.40717Z" fill="#FFD2B1"/>
<path d="M25 0.611816C21.2357 0.611816 18.1819 3.56647 18.1819 7.2085C18.1819 10.8525 21.2357 13.8052 25 13.8052C28.7643 13.8052 31.8181 10.8525 31.8181 7.2085C31.8181 3.56647 28.7643 0.611816 25 0.611816ZM25 9.40717C23.7434 9.40717 22.7275 8.4236 22.7275 7.2085C22.7275 5.99537 23.7434 5.00982 25 5.00982C26.2566 5.00982 27.2725 5.99537 27.2725 7.2085C27.2725 8.4236 26.2566 9.40717 25 9.40717Z" fill="#FFD2B1"/>
<path d="M43.1819 0.611816C39.4176 0.611816 36.3638 3.56647 36.3638 7.2085C36.3638 10.8525 39.4176 13.8052 43.1819 13.8052C46.9462 13.8052 50 10.8525 50 7.2085C50 3.56647 46.9462 0.611816 43.1819 0.611816ZM43.1819 9.40717C41.9253 9.40717 40.9087 8.4236 40.9087 7.2085C40.9087 5.99537 41.9253 5.00982 43.1819 5.00982C44.4378 5.00982 45.4544 5.99537 45.4544 7.2085C45.4544 8.4236 44.4378 9.40717 43.1819 9.40717Z" fill="#FFD2B1"/>
<path d="M45.4544 18.2031H4.54564C2.0468 18.2031 0 20.1828 0 22.6013V48.9888C0 51.4065 2.0468 53.3862 4.54564 53.3862H45.4544C47.9532 53.3862 50 51.4065 50 48.9881V22.6006C50 20.1828 47.9532 18.2031 45.4544 18.2031ZM45.4544 48.9881H4.54564V22.6006H45.4544V48.9881Z" fill="#FFD2B1"/>
</svg>
