<svg width="50" height="49" viewBox="0 0 50 49" fill="none" xmlns="http://www.w3.org/2000/svg">
<path d="M27.0831 0.44873V4.49558C37.6144 5.51153 45.8331 14.1416 45.8331 24.6379C45.8331 35.1324 37.6144 43.7619 27.0831 44.7779V48.8271C39.915 47.7979 50 37.3687 50 24.6379C50 11.9053 39.915 1.4804 27.0831 0.44873Z" fill="#FFD2B1"/>
<path d="M22.9169 44.7779C12.39 43.7619 4.16687 35.1324 4.16687 24.6379C4.16687 14.1422 12.39 5.51153 22.9169 4.49558V0.44873C10.0875 1.4804 0 11.9053 0 24.6379C0 37.3687 10.0875 47.7979 22.9169 48.8271V44.7779Z" fill="#FFD2B1"/>
<path d="M12.6874 22.6226C13.6799 16.9036 18.8068 12.5435 24.9999 12.5435C31.1931 12.5435 36.3199 16.9036 37.3124 22.6226H41.5218C40.4968 14.6697 33.5006 8.51172 24.9999 8.51172C16.5037 8.51172 9.50492 14.6697 8.47742 22.6226H12.6874Z" fill="#FFD2B1"/>
<path d="M37.3125 26.6533C36.32 32.3697 31.1931 36.7321 25 36.7321C18.8069 36.7321 13.68 32.3697 12.6875 26.6533H8.47815C9.50502 34.6059 16.5038 40.7637 25 40.7637C33.5006 40.7637 40.4969 34.6059 41.5225 26.6533H37.3125Z" fill="#FFD2B1"/>
<path d="M25 16.5752C20.3981 16.5752 16.6669 20.1854 16.6669 24.6379C16.6669 29.0905 20.3981 32.7007 25 32.7007C29.6038 32.7007 33.3331 29.0905 33.3331 24.6379C33.3331 20.1854 29.6038 16.5752 25 16.5752ZM25 28.6696C22.6987 28.6696 20.8331 26.8645 20.8331 24.6379C20.8331 22.4114 22.6987 20.6063 25 20.6063C27.3031 20.6063 29.1669 22.4114 29.1669 24.6379C29.1669 26.8645 27.3031 28.6696 25 28.6696Z" fill="#FFD2B1"/>
</svg>
